<?xml version="1.0" encoding="utf-8"?>
<!-- Generator: Adobe Illustrator 24.0.0, SVG Export Plug-In . SVG Version: 6.00 Build 0)  -->
<svg version="1.1" xmlns="http://www.w3.org/2000/svg" xmlns:xlink="http://www.w3.org/1999/xlink" x="0px" y="0px"
	 viewBox="0 0 362.85 122.85" style="enable-background:new 0 0 362.85 122.85;" xml:space="preserve">
<style type="text/css">
	.st0{fill:#FFFFFF;}
	.st1{fill:#CF9C2E;}
	.st2{fill:#EBD990;}
	.st3{fill:#C08431;}
	.st4{fill:#8FA23B;}
	.st5{fill:#838A34;}
	.st6{fill:#0EA089;}
	.st7{fill:#00772A;}
	.st8{fill:#19A6C6;}
	.st9{fill:#00696A;}
	.st10{fill:#A41D45;}
	.st11{fill:#111434;}
	.st12{fill:#DA3327;}
	.st13{fill:#8E191B;}
	.st14{fill:#DF5926;}
	.st15{fill:#B73115;}
	.st16{fill:#C12026;}
	.st17{fill:#171717;}
</style>
<g id="Layer_1">
</g>
<g id="Layer_2">
	<g>
		<g>
			<path class="st0" d="M106.64,21.11h14.75c8.62,0,14.38,5.95,14.38,13.89s-5.77,13.89-14.38,13.89h-7.32v15.62h-7.44V21.11z
				 M128.22,35c0-4.09-2.67-6.82-7.75-6.82h-6.39v13.64h6.39C125.55,41.82,128.22,39.09,128.22,35z"/>
			<path class="st0" d="M166.45,49.69c0,0.56,0,1.67-0.06,2.79h-21.95c0.56,2.6,3.6,5.95,8.25,5.95c5.15,0,8.06-2.98,8.06-2.98
				l3.72,5.58c0,0-4.65,4.22-11.78,4.22c-8.93,0-15.81-6.82-15.81-15.44s6.26-15.44,14.76-15.44
				C159.7,34.38,166.45,40.64,166.45,49.69z M159.01,47.09c-0.12-2.54-2.48-5.95-7.38-5.95c-4.77,0-6.94,3.35-7.19,5.95H159.01z"/>
			<path class="st0" d="M192.06,35.31l-2.6,6.7c0,0-1.36-0.68-3.53-0.68c-4.53,0-6.57,3.97-6.57,3.97v19.22h-7.44V35.12h7.07v4.28
				c0,0,2.54-5.02,8-5.02C189.64,34.38,192.06,35.31,192.06,35.31z"/>
			<path class="st0" d="M197.46,54.53c0,0,3.91,4.22,8.87,4.22c3.04,0,5.58-0.87,5.58-2.67c0-1.92-1.36-2.29-5.83-3.22
				c-5.83-1.24-10.91-3.72-10.91-9.3c0-4.59,4.59-9.18,12.65-9.18c6.63,0,11.04,3.6,11.04,3.6l-3.72,5.46c0,0-3.35-2.54-7.32-2.54
				c-2.79,0-5.33,0.99-5.33,2.79s1.98,2.23,6.94,3.29c5.83,1.24,9.98,3.16,9.98,9.24c0,5.02-5.33,9.05-12.83,9.05
				c-8.62,0-13.27-5.33-13.27-5.33L197.46,54.53z"/>
			<path class="st0" d="M254.49,49.82c0,8.62-6.94,15.44-15.69,15.44s-15.69-6.82-15.69-15.44c0-8.68,6.94-15.44,15.69-15.44
				S254.49,41.14,254.49,49.82z M246.93,49.82c0-4.59-3.1-8.49-8.12-8.49s-8.12,3.91-8.12,8.49s3.1,8.49,8.12,8.49
				S246.93,54.41,246.93,49.82z"/>
			<path class="st0" d="M286.48,45.48v19.03h-7.44V47.34c0-4.22-2.6-6.01-5.83-6.01c-3.84,0-5.83,3.78-5.83,3.78v19.41h-7.44V35.12
				h6.94v4.28c0,0,2.6-5.02,8.8-5.02C281.4,34.38,286.48,38.41,286.48,45.48z"/>
			<path class="st0" d="M293.1,35.12h7.44v29.39h-7.44V35.12z"/>
			<path class="st0" d="M305.43,35.12h5.83v-7.19c0-8.18,5.77-11.04,10.54-11.04c4.09,0,6.51,1.55,6.51,1.55l-2.79,6.26
				c0,0-1.12-0.87-2.98-0.87c-1.43,0-3.84,0.81-3.84,4.46v6.82h7.19v6.7h-7.19v22.69h-7.44V41.82h-5.83V35.12z"/>
			<path class="st0" d="M333.16,70.65c0,0,1.98,1.92,3.91,1.92c2.54,0,3.6-0.74,5.02-4.34l1.18-3.04l-14.32-30.07h8.25l9.92,21.51
				l7.75-21.51h8l-14.26,35.96c-2.54,6.45-6.7,8.43-11.04,8.43c-4.46,0-7.87-3.1-7.87-3.1L333.16,70.65z"/>
		</g>
		<circle class="st0" cx="296.82" cy="25.64" r="4.9"/>
	</g>
	<g>
		<path class="st1" d="M52.71,26.4h-7.1v7.41h33.36c-1.11-7.49-4.32-14.29-9-19.8C68.2,22,61.39,26.4,52.71,26.4z"/>
		<path class="st2" d="M39.48,21.11l-5.02,5.02l5.24,5.24l0,0l0,0l23.6-23.6c-5.79-4.28-12.78-7.02-20.38-7.63
			C47.32,7.04,45.61,14.97,39.48,21.11z"/>
		<path class="st3" d="M63.3,7.77l-23.6,23.6l2.45,2.45h3.47V26.4h7.1c8.68,0,15.49-4.4,17.26-12.39
			C67.99,11.69,65.76,9.59,63.3,7.77z"/>
		<path class="st4" d="M26.38,26.72v7.1h7.41v0h0V0.44c-7.49,1.12-14.3,4.33-19.81,9.02C21.98,11.23,26.38,18.04,26.38,26.72z"/>
		<path class="st5" d="M37.25,33.82l2.45-2.45l-5.24-5.24l5.02-5.02c6.14-6.14,7.84-14.07,3.44-20.97C41.85,0.06,40.79,0,39.71,0
			c-2.01,0-3.98,0.15-5.91,0.44v33.38H37.25z"/>
		<path class="st6" d="M21.08,39.94l5.02,5.02l5.24-5.24L7.76,16.13C3.48,21.92,0.75,28.9,0.14,36.49
			C7.03,32.11,14.95,33.82,21.08,39.94z"/>
		<path class="st7" d="M33.8,37.27v-3.45h-7.41v-7.1c0-8.68-4.4-15.49-12.39-17.26c-2.32,1.98-4.42,4.21-6.24,6.67l23.59,23.59
			L33.8,37.27z"/>
		<path class="st8" d="M26.7,53.05h7.1v-7.41H0.44C1.56,53.11,4.77,59.9,9.45,65.4C11.23,57.44,18.03,53.05,26.7,53.05z"/>
		<path class="st9" d="M26.1,44.96l-5.02-5.02c-6.13-6.13-14.05-7.83-20.94-3.46C0.06,37.55,0,38.62,0,39.71
			c0,2.01,0.15,3.99,0.44,5.93H33.8l0-3.46l-2.45-2.45l0,0l0,0"/>
		<path class="st10" d="M39.92,58.34l5.02-5.02l-5.24-5.24l0,0L16.12,71.65c5.78,4.27,12.75,7.01,20.33,7.62
			C32.09,72.38,33.79,64.46,39.92,58.34z"/>
		<path class="st11" d="M37.25,45.63H33.8v7.41h-7.1c-8.66,0-15.47,4.39-17.25,12.36c1.98,2.33,4.22,4.42,6.67,6.24L39.7,48.08
			L37.25,45.63z"/>
		<path class="st12" d="M53.03,52.73v-7.1h-7.41v0v33.34c7.48-1.12,14.27-4.32,19.77-8.99C57.42,68.2,53.03,61.39,53.03,52.73z"/>
		<path class="st13" d="M42.14,45.63l-2.44,2.44l5.24,5.24l-5.02,5.02c-6.12,6.12-7.83,14.04-3.46,20.93
			c1.07,0.09,2.15,0.14,3.25,0.14c2.01,0,3.98-0.15,5.91-0.44V45.63H42.14z"/>
		<path class="st14" d="M58.32,39.5l-5.02-5.02l-5.24,5.24l23.58,23.58c4.28-5.78,7.02-12.77,7.63-20.36
			C72.37,47.34,64.45,45.63,58.32,39.5z"/>
		<path class="st15" d="M45.61,33.82v3.46l2.44,2.44l0,0l0,0l0,0v0l5.24-5.24l5.02,5.02c6.13,6.13,14.06,7.84,20.95,3.45
			c0.09-1.07,0.14-2.15,0.14-3.24c0-2-0.15-3.97-0.44-5.89L45.61,33.82L45.61,33.82z"/>
		<path class="st16" d="M45.61,42.16v3.47h7.41v7.1c0,8.66,4.39,15.47,12.36,17.25c2.33-1.98,4.43-4.21,6.25-6.67L48.05,39.72
			L45.61,42.16z"/>
		<polygon class="st17" points="45.61,37.29 45.61,33.82 42.15,33.82 39.7,31.37 37.25,33.82 33.8,33.82 33.8,37.27 31.34,39.73 
			33.8,42.18 33.8,45.63 37.25,45.63 39.7,48.08 42.14,45.63 45.61,45.63 45.61,42.16 48.05,39.72 		"/>
	</g>
	<g>
		<path class="st4" d="M113.29,81.22h2.68l5.98,15.4h-2.66l-1.41-3.65h-6.51l-1.41,3.65h-2.66L113.29,81.22z M112.32,90.55h4.62
			l-2.31-6.01L112.32,90.55z"/>
		<path class="st4" d="M131.92,89.45c0.57-0.75,1.78-1.91,1.78-3.65c0-1.23-0.84-2.38-2.29-2.38c-2.27,0-2.75,2.24-2.75,2.24
			l-2.35-0.86c0,0,0.99-3.85,5.1-3.85c3.32,0,4.93,2.24,4.93,4.8c0,1.91-0.97,3.28-1.34,3.78l-3.54,4.58h4.95v2.51h-10.14
			L131.92,89.45z"/>
		<path class="st4" d="M153.73,81.22l-8.01,12.89h7.57v2.51h-12.08l8.05-12.89h-7.31v-2.51H153.73z"/>
		<path class="st4" d="M171.37,87.47h6.16v2.51h-6.16v4.14h6.82v2.51h-9.46v-15.4h9.33v2.51h-6.69V87.47z"/>
		<path class="st4" d="M189.34,97.15l-6.89-15.93h2.88l4.09,9.88l4.05-9.88h2.75L189.34,97.15z"/>
		<path class="st4" d="M203.84,87.47H210v2.51h-6.16v4.14h6.82v2.51h-9.46v-15.4h9.33v2.51h-6.69V87.47z"/>
		<path class="st4" d="M218.89,81.22l7.7,10.61V81.22h2.64v15.4h-2.38l-7.7-10.58v10.58h-2.64v-15.4H218.89z"/>
		<path class="st4" d="M238.71,83.73h-4.25v-2.51h11.13v2.51h-4.25v12.89h-2.64V83.73z"/>
		<path class="st4" d="M255.71,90.2c-2.27-0.79-4.82-2.02-4.82-4.88c0-2.18,1.94-4.36,5.04-4.36c3.21,0,5.02,2.44,5.02,2.44
			l-1.83,1.8c0,0-1.28-1.74-3.19-1.74c-1.32,0-2.35,0.81-2.35,1.85c0,1.34,1.21,1.76,3.32,2.55c2.35,0.88,4.31,1.94,4.31,4.73
			c0,2.79-2.46,4.29-5.37,4.29c-3.85,0-5.63-3.15-5.63-3.15l1.98-1.67c0,0,1.32,2.31,3.65,2.31c1.32,0,2.68-0.53,2.68-1.78
			C258.53,91.3,257.54,90.83,255.71,90.2z"/>
	</g>
</g>
</svg>
